<svg width="1024" height="1024" viewBox="0 0 1024 1024" fill="none" xmlns="http://www.w3.org/2000/svg">
<path d="M295.595 131.5L297.695 131.51C341.792 131.93 384.73 145.793 420.755 171.271L446.104 189.186L447.01 189.818C466.09 203.017 488.752 210.096 511.975 210.096C535.566 210.096 558.579 202.79 577.846 189.186L577.848 189.185L603.196 171.319C639.786 145.42 683.517 131.508 728.354 131.5H759.259C779.675 131.5 800.731 132.758 820.438 139.769L821.866 140.28C882.244 162.175 932.948 212.358 967.852 300.671C1003 389.614 1022.2 517.372 1019.19 694.36C1018.58 730.109 1014.1 767.927 1001.59 800.743C989.079 833.591 968.467 861.568 935.565 877.287L935.566 877.288C913.283 887.995 888.866 893.529 864.142 893.48V893.481L864.14 893.48L864.137 893.481V893.48C831.521 893.48 805.547 884.196 785.459 871.019L785.458 871.018C764.625 857.342 746.28 839.608 728.133 822.077C705.611 800.328 683.449 778.903 656.764 765.02V765.021C627.628 749.963 595.299 742.085 562.472 742.085H461.527C428.708 742.076 396.369 749.959 367.24 765.069H367.239C340.554 778.901 318.392 800.327 295.92 822.076L295.918 822.077C277.771 839.608 259.423 857.344 238.486 871.021L238.48 871.025L238.474 871.029C215.054 886.124 187.681 893.938 159.817 893.481V893.48C135.107 893.523 110.705 887.989 88.4336 877.288V877.287C55.5326 861.568 34.9212 833.604 22.4053 800.763C9.90146 767.953 5.41606 730.134 4.80762 694.36C1.80036 517.372 20.9957 389.613 56.1484 300.664C91.3272 211.65 142.556 161.363 203.562 139.719L203.562 139.718C223.218 132.758 244.172 131.5 264.69 131.5H295.595ZM284.738 350.979C275.356 350.979 266.358 354.703 259.725 361.332C253.091 367.961 249.365 376.953 249.365 386.327V426.676H208.992C199.61 426.676 190.613 430.401 183.979 437.03C177.346 443.66 173.619 452.651 173.619 462.025C173.619 471.4 177.346 480.391 183.979 487.021C190.613 493.65 199.61 497.374 208.992 497.374H249.365V537.724C249.365 547.098 253.091 556.089 259.725 562.719C266.358 569.348 275.356 573.072 284.738 573.072C294.12 573.072 303.117 569.348 309.751 562.719C316.384 556.089 320.11 547.098 320.11 537.724V497.374H360.483C369.865 497.374 378.863 493.65 385.496 487.021C392.13 480.391 395.856 471.4 395.856 462.025C395.856 452.651 392.13 443.66 385.496 437.03C378.863 430.401 369.865 426.676 360.483 426.676H320.11V386.327C320.11 376.953 316.384 367.961 309.751 361.332C303.117 354.703 294.12 350.979 284.738 350.979ZM751.836 489.758C742.454 489.758 733.457 493.483 726.823 500.112C720.19 506.742 716.463 515.733 716.463 525.107C716.463 534.482 720.19 543.473 726.823 550.103C733.457 556.732 742.454 560.456 751.836 560.456C761.218 560.456 770.215 556.732 776.849 550.103C783.482 543.473 787.209 534.482 787.209 525.107C787.209 515.733 783.482 506.742 776.849 500.112C770.215 493.483 761.218 489.758 751.836 489.758ZM676.09 414.06C666.708 414.06 657.711 417.785 651.077 424.414C644.444 431.043 640.718 440.035 640.718 449.409C640.718 458.784 644.444 467.775 651.077 474.404C657.711 481.034 666.708 484.758 676.09 484.758C685.472 484.758 694.47 481.034 701.104 474.404C707.737 467.775 711.463 458.784 711.463 449.409C711.463 440.035 707.737 431.043 701.104 424.414C694.47 417.785 685.472 414.06 676.09 414.06ZM827.581 414.06C818.199 414.06 809.202 417.785 802.568 424.414C795.935 431.043 792.209 440.035 792.209 449.409C792.209 458.784 795.935 467.775 802.568 474.404C809.202 481.034 818.199 484.758 827.581 484.758C836.963 484.758 845.961 481.034 852.595 474.404C859.228 467.775 862.954 458.784 862.954 449.409C862.954 440.035 859.228 431.043 852.595 424.414C845.961 417.785 836.963 414.06 827.581 414.06ZM751.836 338.361C742.454 338.361 733.457 342.087 726.823 348.716C720.19 355.345 716.463 364.336 716.463 373.711C716.463 383.086 720.19 392.077 726.823 398.706C733.457 405.335 742.454 409.06 751.836 409.06C761.218 409.06 770.215 405.335 776.849 398.706C783.482 392.077 787.209 383.086 787.209 373.711C787.209 364.336 783.482 355.345 776.849 348.716C770.215 342.086 761.218 338.361 751.836 338.361Z" fill="url(#paint0_linear_458_279)" stroke="white" stroke-width="5"/>
<defs>
<linearGradient id="paint0_linear_458_279" x1="168.897" y1="134" x2="859.088" y2="947.037" gradientUnits="userSpaceOnUse">
<stop stop-color="#FFCDC4"/>
<stop offset="1" stop-color="#B8B8DB"/>
</linearGradient>
</defs>
</svg>
