<svg width="1024" height="1024" viewBox="0 0 1024 1024" fill="none" xmlns="http://www.w3.org/2000/svg">
<rect x="18.5" y="18.5" width="987" height="987" rx="281.5" stroke="white" stroke-width="37"/>
<path d="M510.5 513C565.451 513 610 468.451 610 413.5C610 358.549 565.451 314 510.5 314C455.549 314 411 358.549 411 413.5C411 468.451 455.549 513 510.5 513Z" fill="#FF7512"/>
<path d="M546.124 869.215C621.07 775.305 792 547.698 792 419.852C792 264.798 666.359 139 511.5 139C356.641 139 231 264.798 231 419.852C231 547.698 401.93 775.305 476.876 869.215C494.845 891.595 528.155 891.595 546.124 869.215ZM511.5 326.235C536.298 326.235 560.08 336.098 577.614 353.654C595.149 371.211 605 395.023 605 419.852C605 444.681 595.149 468.493 577.614 486.049C560.08 503.606 536.298 513.469 511.5 513.469C486.702 513.469 462.92 503.606 445.386 486.049C427.851 468.493 418 444.681 418 419.852C418 395.023 427.851 371.211 445.386 353.654C462.92 336.098 486.702 326.235 511.5 326.235Z" fill="#415297"/>
</svg>
