<svg width="1024" height="1024" viewBox="0 0 1024 1024" fill="none" xmlns="http://www.w3.org/2000/svg">
<path d="M682.833 957.072L679.646 956.161L342.979 859.952L341.167 859.435V508.497L345.758 515.503C381.643 570.261 419.814 619.786 444.163 650.248L444.987 651.263C480.134 693.859 545.165 693.521 579.837 650.248C604.186 619.786 642.357 570.261 678.242 515.503L682.833 508.497V957.072ZM958.385 294.97C987.73 283.276 1019.5 304.811 1019.5 336.371V810.758C1019.5 828.945 1008.36 845.467 991.45 852.158L991.451 852.159L737.373 953.801L733.944 955.172V420.592L734.215 420.059C740.326 408.018 745.914 395.976 750.979 384.108C751.406 383.082 751.835 382.01 752.271 380.919C752.709 379.827 753.154 378.714 753.601 377.644L754.005 376.674L754.979 376.284L958.383 294.971L958.385 294.97ZM512 67.5C629.634 67.5 724.917 162.724 724.917 280.293C724.917 304.706 716.758 333.667 703.812 364.323C690.849 395.021 672.997 427.621 653.419 459.369C614.265 522.861 568.081 583.141 539.91 618.313L539.911 618.314C525.577 636.41 498.595 636.389 484.099 618.327L484.098 618.325C455.927 583.155 409.739 522.868 370.581 459.369C351.003 427.621 333.151 395.021 320.188 364.323C307.242 333.667 299.083 304.706 299.083 280.293C299.083 162.724 394.366 67.5 512 67.5ZM290.056 863.446L288.484 864.075L65.6182 953.274L65.6143 953.276C36.2692 964.97 4.5 943.434 4.5 911.874V437.312C4.5 419.159 15.5869 402.875 32.3877 395.979L32.375 395.911L247.351 310.041L250.223 308.894L250.742 311.943C254.907 336.396 263.248 361.085 273.021 384.108L273.978 386.336C278.787 397.482 284.056 408.771 289.785 420.059L290.056 420.592V863.446Z" fill="url(#paint0_linear_463_282)" stroke="white" stroke-width="5"/>
<defs>
<linearGradient id="paint0_linear_463_282" x1="168.897" y1="70" x2="985.687" y2="893.938" gradientUnits="userSpaceOnUse">
<stop stop-color="#FFCDC4"/>
<stop offset="1" stop-color="#B8B8DB"/>
</linearGradient>
</defs>
</svg>
