<svg width="1024" height="1024" viewBox="0 0 1024 1024" fill="none" xmlns="http://www.w3.org/2000/svg">
<rect x="18.5" y="18.5" width="987" height="987" rx="281.5" stroke="white" stroke-width="37"/>
<path d="M776.403 238.867C709.619 176.306 619.837 138 521.109 138C314.832 138 147.609 305.222 147.609 511.5C147.609 717.778 314.832 885 521.109 885C623.408 885 716.102 843.873 783.558 777.252L512 502.39L776.403 238.867Z" fill="#415297"/>
<path d="M803.512 575.268C843.761 575.268 876.39 542.638 876.39 502.39C876.39 462.141 843.761 429.512 803.512 429.512C763.263 429.512 730.634 462.141 730.634 502.39C730.634 542.638 763.263 575.268 803.512 575.268Z" fill="#FF7512"/>
</svg>
